<svg width="20" height="15" viewBox="0 0 20 15" fill="none" xmlns="http://www.w3.org/2000/svg">
<path d="M19.78 3.00007C19.78 3.00007 19.58 1.63007 18.98 1.03007C18.23 0.230067 17.38 0.230067 16.98 0.180067C14.2 -0.0199329 10 6.72872e-05 10 6.72872e-05C10 6.72872e-05 5.82 -0.0199329 3.03 0.180067C2.63 0.230067 1.79 0.230067 1.03 1.03007C0.43 1.63007 0.23 3.00007 0.23 3.00007C0.23 3.00007 0.03 4.63007 0 6.23007V7.93007C0.03 9.53007 0.23 11.1301 0.23 11.1301C0.23 11.1301 0.43 12.5301 1.03 13.1301C1.79 13.9301 2.78 13.8901 3.23 13.9801C4.8 14.1301 9.83 14.1601 10 14.1601C10 14.1601 14.2 14.1601 17 13.9601C17.38 13.9201 18.23 13.9201 19 13.1201C19.6 12.5201 19.8 11.1401 19.8 11.1401C19.8 11.1401 20 9.54007 20 7.92007V6.22007C19.98 4.62007 19.78 3.00007 19.78 3.00007ZM7.98 10.0001V4.16007L13.33 7.19007L7.97 10.0001H7.98Z" fill="#606060"/>
</svg>
